<svg xmlns="http://www.w3.org/2000/svg" viewBox="0 0 752.39 659.66"><defs><style>.cls-1{fill:#ccc;opacity:0.18;}.cls-2{fill:#9250f7;}.cls-3{fill:#be96fa;}.cls-4{fill:#8f71bb;}.cls-5{fill:#fefefe;}.cls-6{fill:none;stroke:#9250f7;stroke-linecap:round;}.cls-10,.cls-11,.cls-12,.cls-6,.cls-7{stroke-miterlimit:10;}.cls-7{fill:#48395e;stroke:#48395e;}.cls-8{fill:#2a193f;}.cls-9{fill:#2c3b66;}.cls-10{fill:#3e4d78;stroke:#3e4d78;}.cls-11{fill:#404040;stroke:#404040;}.cls-12{fill:#c5c5c5;stroke:#c5c5c5;}</style></defs><title>forbiden</title><g id="Capa_1" data-name="Capa 1"><ellipse class="cls-1" cx="514.53" cy="618.34" rx="206.38" ry="25.46"/><path class="cls-2" d="M572.07,476.92c-2.46,1.41-6,3.49-10.45,6.1,0,0,0,0,0,0a2.49,2.49,0,0,0-.42-3.49c-.49-.38-1-.76-1.44-1.15,4.12-2.42,7.46-4.39,9.81-5.73,28.58-16.32,24.22-48.48,20.7-74.32-.62-4.57-1.21-9-1.6-13.1l2.13.13a2.51,2.51,0,0,0,2.64-2.32v-.17h0c.36,4.55,1,9.56,1.76,14.8C599,424.93,603.56,458.93,572.07,476.92Z"/><path class="cls-2" d="M593.48,382.82V383a2.51,2.51,0,0,1-2.64,2.32l-2.13-.13c-.17-1.72-.3-3.39-.37-5l2.82.15A2.5,2.5,0,0,1,593.48,382.82Z"/><path class="cls-2" d="M590.31,398.28c3.52,25.84,7.88,58-20.7,74.32-2.35,1.34-5.69,3.31-9.81,5.73a179.43,179.43,0,0,1-53-69.76,131.93,131.93,0,0,1,81.87-23.39C589.1,389.3,589.69,393.71,590.31,398.28Z"/><path class="cls-3" d="M589.1,208.22v-.46c0,.11,0,.21,0,.32A.66.66,0,0,1,589.1,208.22Z"/><path class="cls-3" d="M586.58,210.5h0a2.48,2.48,0,0,0,2.47-2.28c1.66,68.61,4.12,169.77,4.18,171.4.05,1,.13,2.11.21,3.2h0a2.5,2.5,0,0,0-2.32-2.48l-2.82-.15c0-.12,0-.23,0-.35-.07-1.24-2.46-100.59-4.13-169.39Z"/><path class="cls-2" d="M588.34,380.19c.07,1.6.2,3.27.37,5a131.93,131.93,0,0,0-81.87,23.39,179.43,179.43,0,0,0,53,69.76L555.23,481a184.72,184.72,0,0,1-53.76-72.39,2.48,2.48,0,0,1,.86-3,136.9,136.9,0,0,1,86-25.48Z"/><path class="cls-3" d="M588.32,379.84c0,.12,0,.23,0,.35a136.9,136.9,0,0,0-86,25.48,2.48,2.48,0,0,0-.86,3A184.72,184.72,0,0,0,555.23,481c-1.15.69-2.35,1.38-3.58,2.11-12.78,7.56-30.17,17.8-49.35,28.86-32.38,18.63-69.9,39.47-99,53.22A306.63,306.63,0,0,0,361.61,498,304.26,304.26,0,0,0,329,463.92c23.86-16.71,33.71-23.44,43.25-30,10-6.82,20.3-13.87,46.58-32.29,10.32-7.06,18.12-15.73,23.17-25.78,5.31-10.55,6.86-51.22,9-107.52.73-19.14,1.51-39.59,2.52-60.91l130.64,3C585.86,279.25,588.25,378.6,588.32,379.84Z"/><path class="cls-2" d="M586.63,210.5h0l-2.39-.05q-.08-2.52-.12-5l2.62.06a2.48,2.48,0,0,1,2.4,2.18.13.13,0,0,0,0,0v.46A2.48,2.48,0,0,1,586.63,210.5Z"/><path class="cls-2" d="M584.19,210.45l-130.64-3c.08-1.65.15-3.32.24-5l130.28,3Q584.12,207.93,584.19,210.45Z"/><path class="cls-2" d="M584.07,205.47l-130.28-3c.87-18.21,1.91-37,3.23-56.2l125.68,2.38C582.87,156.06,583.41,177.93,584.07,205.47Z"/><path class="cls-3" d="M561.62,483a2.42,2.42,0,0,1-1.46.87Z"/><path class="cls-2" d="M556.07,481.18a2.18,2.18,0,0,0-.57.08,2.1,2.1,0,0,1-.27-.24l4.57-2.69c.47.39,1,.77,1.44,1.15a2.49,2.49,0,0,1,.42,3.49s0,0,0,0l-1.46.87a2.28,2.28,0,0,1-.45,0,2.45,2.45,0,0,1-1.15-.29,2.5,2.5,0,0,0-.74-1.72A2.46,2.46,0,0,0,556.07,481.18Z"/><path class="cls-3" d="M560.16,483.89l-1.6.93v-1.18a2.45,2.45,0,0,0,1.15.29A2.28,2.28,0,0,0,560.16,483.89Z"/><path class="cls-4" d="M558.56,484.82l-.14,136.51a2.49,2.49,0,0,1-2.49,2.48H531.09a2.49,2.49,0,0,1,0-5h22.36l.14-131.07c.2-.13.38-.24.58-.35C555.7,486.51,557.16,485.66,558.56,484.82Z"/><path class="cls-2" d="M558.56,483.64a2,2,0,0,1-.39-.25c-.89-.7-1.79-1.41-2.67-2.13a2.18,2.18,0,0,1,.57-.08,2.46,2.46,0,0,1,1.75.74A2.5,2.5,0,0,1,558.56,483.64Z"/><path class="cls-3" d="M558.17,483.39a2,2,0,0,0,.39.25v1.18c-1.4.84-2.86,1.69-4.39,2.6-.2.11-.38.22-.58.35v-4.1a2.46,2.46,0,0,1,1.91-2.41C556.38,482,557.28,482.69,558.17,483.39Z"/><path class="cls-4" d="M501.82,518l4.93-2.83a2,2,0,0,1,.05.5l-.55,105.7a2.49,2.49,0,0,1-2.48,2.47h-23.6a2.49,2.49,0,1,1,0-5H501.3Z"/><path class="cls-3" d="M502.3,512c19.18-11.06,36.57-21.3,49.35-28.86,1.23-.73,2.43-1.42,3.58-2.11a2.1,2.1,0,0,0,.27.24,2.46,2.46,0,0,0-1.91,2.41v4.1c-12.3,7.25-28.71,16.93-46.84,27.37a2.5,2.5,0,0,0-2.42-2h0a2.49,2.49,0,0,0-1.18.3Z"/><path class="cls-3" d="M506.75,515.14,501.82,518v-2.36a2.48,2.48,0,0,1,2.48-2.47h0A2.5,2.5,0,0,1,506.75,515.14Z"/><path class="cls-3" d="M403.26,565.21c29.14-13.75,66.66-34.59,99-53.22l.83,1.45a2.49,2.49,0,0,0-1.3,2.17V518c-32.4,18.59-69.48,39.09-98.4,52.56a2.48,2.48,0,0,0,.87-3.06C404,566.71,403.62,566,403.26,565.21Z"/><path class="cls-2" d="M451,202.43a2.49,2.49,0,0,0-2.25,1.43c.94-19.48,2.05-39.68,3.48-60.28a2.49,2.49,0,0,1,2.49-2.31h.05l130.41,2.48a2.5,2.5,0,0,1,2.44,2.42c0,.77.64,27,1.48,61.54a2.48,2.48,0,0,0-2.4-2.18l-2.62-.06c-.66-27.54-1.2-49.41-1.37-56.8L457,146.29c-1.32,19.17-2.36,38-3.23,56.2l-2.74-.06Z"/><path class="cls-2" d="M453.55,207.46l-2.61-.06a2.47,2.47,0,0,1-2.28-1.67c0-.62,0-1.25.08-1.87a2.49,2.49,0,0,1,2.25-1.43h.06l2.74.06C453.7,204.14,453.63,205.81,453.55,207.46Z"/><path class="cls-3" d="M448.66,205.73a2.54,2.54,0,0,1-.15-.88,2.44,2.44,0,0,1,.23-1C448.71,204.48,448.68,205.11,448.66,205.73Z"/><path class="cls-2" d="M404.29,567.47a2.48,2.48,0,0,1-.87,3.06l-.74.34a2.15,2.15,0,0,1-.66.09,2.48,2.48,0,0,1-2.28-1.48c-.32-.73-.64-1.45-1-2.17l4.51-2.1C403.62,566,404,566.71,404.29,567.47Z"/><path class="cls-3" d="M402.68,570.87l.74-.34a2.56,2.56,0,0,1-.4.22A1.38,1.38,0,0,1,402.68,570.87Z"/><path class="cls-2" d="M357.76,501.18a300.27,300.27,0,0,1,41,66.13c-15.95,7.33-29,12.23-36.74,13-25.77,1.71-43.86-11.38-55.28-40.05a64.64,64.64,0,0,1,18.19-73.38A300.18,300.18,0,0,1,357.76,501.18Z"/><path class="cls-3" d="M324.26,461.19c25.28-17.7,35.4-24.63,45.2-31.33,10-6.82,20.29-13.86,46.56-32.28,9.65-6.59,16.89-14.63,21.56-23.92,4.83-9.59,6.44-51.91,8.49-105.48.75-19.6,1.54-40.56,2.59-62.45a2.47,2.47,0,0,0,2.28,1.67l2.61.06c-1,21.32-1.79,41.77-2.52,60.91-2.15,56.3-3.7,97-9,107.52-5,10.05-12.85,18.72-23.17,25.78-26.28,18.42-36.61,25.47-46.58,32.29-9.54,6.52-19.39,13.25-43.25,30-.82-.75-1.64-1.47-2.47-2.2A2.49,2.49,0,0,0,324.26,461.19Z"/><path class="cls-2" d="M325.79,466.18l3.23-2.26A304.26,304.26,0,0,1,361.61,498a306.63,306.63,0,0,1,41.65,67.18l-4.51,2.1a300,300,0,0,0-73.83-100.4C325.21,466.66,325.49,466.42,325.79,466.18Z"/><path class="cls-2" d="M325.79,466.18c-.3.24-.58.48-.87.73-.54-.49-1.09-1-1.65-1.46a2.47,2.47,0,0,1-.36-3.32l1.35-.94a2.49,2.49,0,0,1,2.29.53c.83.73,1.65,1.45,2.47,2.2Z"/><path class="cls-3" d="M324.26,461.19l-1.35.94.14-.19A2.39,2.39,0,0,1,324.26,461.19Z"/><path class="cls-2" d="M402,571a2.15,2.15,0,0,0,.66-.09c-17.41,8.08-31.78,13.54-40.25,14.42-1.59.12-3.15.17-4.69.17-25.49,0-44.16-14.56-55.63-43.33a69.6,69.6,0,0,1,20.6-79.85l.15-.11.05,0a2.47,2.47,0,0,0,.36,3.32c.56.48,1.11,1,1.65,1.46a64.64,64.64,0,0,0-18.19,73.38C318.15,569,336.24,582.05,362,580.34c7.73-.8,20.79-5.7,36.74-13,.35.72.67,1.44,1,2.17A2.48,2.48,0,0,0,402,571Z"/><circle class="cls-5" cx="483.89" cy="334.41" r="16.15"/><circle class="cls-5" cx="533.58" cy="365.46" r="16.15"/><circle class="cls-5" cx="442.91" cy="413.9" r="16.15"/><circle class="cls-5" cx="389.5" cy="454.89" r="16.15"/><circle class="cls-5" cx="418.07" cy="521.96" r="16.15"/><circle class="cls-5" cx="450.36" cy="471.04" r="16.15"/><circle class="cls-5" cx="507.49" cy="471.04" r="16.15"/><path class="cls-2" d="M454.09,200.25a407.53,407.53,0,0,1,3.57-47.6,4.85,4.85,0,0,1,.95-2.71,4.68,4.68,0,0,1,2.84-1.16c15.72-2.43,31.75.89,47.65.42,3.44-.1,6.87-.38,10.31-.28,5.33.15,10.6,1.2,15.91,1.63,14.45,1.17,29-2.25,43.43-1.3A3.32,3.32,0,0,1,581,150a3.42,3.42,0,0,1,.68,2.39l1.41,52.46"/><path class="cls-2" d="M455.35,201.26c16.82-.69,33.66-.29,50.49.23q24.21.75,48.41,1.86c9.72.44,19.52.92,29.13-.6"/><path class="cls-2" d="M506.53,409c12.67,25.81,32.48,47.31,52,68.42l-29.17-30.89a146.8,146.8,0,0,0,14.68,17.76"/><path class="cls-2" d="M505.24,409.75c13,26,32.66,47.57,52.24,68.73l2.12-2.12-29.17-30.89c-1.14-1.21-3.36.41-2.35,1.82A160.11,160.11,0,0,0,543,465.35c1.34,1.4,3.46-.73,2.12-2.12a156.41,156.41,0,0,1-14.44-17.45l-2.36,1.81,29.17,30.89c1.33,1.41,3.43-.7,2.12-2.12-19.42-21-38.92-42.32-51.77-68.12-.86-1.73-3.45-.21-2.59,1.51Z"/><path class="cls-2" d="M508.59,410.35a134.82,134.82,0,0,1,41.67-18.9,131.32,131.32,0,0,1,23.3-3.86c3.71-.28,7.43-.39,11.15-.35.86,0,1.72,0,2.58.05a7.62,7.62,0,0,1,2.18,5.44,50,50,0,0,1,.56,5.74c1.3,15.07,2.64,31.62-.93,46.49-1.75,7.28-5.09,14-10.79,19-5.88,5.15-13.33,8.19-20.47,11.12-1.76.72-1,3.62.8,2.89,14.65-6,27.67-13.15,32.56-29.21,5.15-16.94,3.21-36.76,1.47-54.07-.26-2.54.11-7.41-2.1-9.35-2-1.79-6-1.08-8.43-1.06a136,136,0,0,0-75.07,23.53c-1.59,1.07-.09,3.67,1.52,2.59Z"/><path class="cls-2" d="M323.35,469a208.6,208.6,0,0,1,53.58,65.46l2.59-1.52-7.8-14-2.6,1.51A281.3,281.3,0,0,1,393,559.61c4.35,8.66-10.59,13.78-16.88,15.71a55.07,55.07,0,0,1-22,2.21c-30.83-3.29-51-31.25-49.74-61.26.73-17.48,8.28-34.08,20.27-46.69,1.33-1.4-.79-3.53-2.12-2.13-22.63,23.82-29.52,63.16-8.77,90.48a57.73,57.73,0,0,0,61.58,20.74c7-1.94,15.41-5.27,20.65-10.51,2.16-2.17,2.19-4.2,1.08-7-2-4.89-4.83-9.63-7.41-14.22a284,284,0,0,0-18-28c-1.12-1.54-3.56-.21-2.6,1.51l7.81,14c.95,1.69,3.49.19,2.59-1.52a210.53,210.53,0,0,0-54-66.06c-1.48-1.21-3.62.9-2.12,2.12Z"/><path class="cls-3" d="M585.43,220.14q.36,77.66,3.26,155.26"/><path class="cls-3" d="M452.09,212.07q-1.08,60.56-5.26,121c-1.23,17.7-.32,39.48-12.27,54-5.75,7-13.59,11.91-20.93,17L389.36,421l-55.82,38.91c-1.57,1.1-.07,3.7,1.52,2.59l51.77-36.09,25.89-18c7.06-4.92,14.53-9.61,20.7-15.66,12.44-12.19,14.15-29.27,15.4-45.76q2.4-31.68,3.93-63.42,1.71-35.7,2.34-71.44c0-1.93-3-1.93-3,0Z"/><path class="cls-3" d="M410.63,558.66l10.44-3a45.12,45.12,0,0,1-8.07,5.94l136.11-76.44"/><path class="cls-6" d="M559.28,483.8a188.84,188.84,0,0,1-58.16-76.3,140.33,140.33,0,0,1,90.7-25.72"/><path class="cls-2" d="M454.87,147.34a243,243,0,0,1-.93,50.3c-.21,1.73,1.56,2.84,3,3l18.19,2v-6l-18.28-.13c-3.34,0-4.13,5.08-.8,5.89,4.32,1,8.33.51,12.67-.13,5.76-.84,10.61.09,16.21,1.4,10.42,2.44,20.42.31,30.92-.09,21.41-.82,43.09.75,64.51,1.3a3,3,0,0,0,3-3q.43-24.88-.17-49.76a3.07,3.07,0,0,0-3-3c-39.76-2.14-79.65-2.59-119.45-3.78-3.86-.11-3.86,5.89,0,6,39.8,1.19,79.69,1.64,119.45,3.78l-3-3q.6,24.88.17,49.76l3-3c-20.82-.53-41.8-1.86-62.63-1.36-10.47.25-20.83,2.79-31.2.36-4.42-1-8.82-2.29-13.4-2.12-5.22.21-10.27,2.12-15.48.85l-.8,5.9,18.28.13c3.95,0,3.75-5.58,0-6l-18.19-2,3,3a243,243,0,0,0,.93-50.3c-.32-3.82-6.33-3.85-6,0Z"/><path class="cls-3" d="M407.73,564.64q73.31-37.21,144-79.15a1.5,1.5,0,0,0-1.51-2.59q-70.71,41.91-144,79.15c-1.72.87-.2,3.46,1.51,2.59Z"/><path class="cls-3" d="M582.2,213.87l5.11,161.71c.06,1.92,3.06,1.93,3,0L585.2,213.87c-.06-1.93-3.06-1.94-3,0Z"/><path class="cls-3" d="M334.82,464.35c26-19.92,52.89-38.25,80.19-56.26,11-7.27,21.37-15.55,26.76-27.94,5.76-13.23,6.09-28.17,7.08-42.34q2-29,4-57.95c.14-1.92-2.86-1.91-3,0q-2.19,31.44-4.39,62.86c-1.3,18.6-2.94,37.69-17.14,51.39-6.5,6.27-14.28,11-21.83,15.9q-12,7.78-23.82,15.88-25.18,17.25-49.41,35.87c-1.51,1.16,0,3.77,1.52,2.59Z"/><path class="cls-3" d="M451.88,210.62q-2.61,35.43-2.17,71a1.5,1.5,0,0,0,3,0q-.45-35.52,2.17-71c.15-1.92-2.85-1.92-3,0Z"/><path class="cls-3" d="M409.15,565.87,552.29,485.4a1.5,1.5,0,0,0-1.51-2.59L407.64,563.27a1.5,1.5,0,0,0,1.51,2.6Z"/><path class="cls-2" d="M453.38,185.81c-.09,4.32-.7,9-.22,13.31.23,2,.71,3.81,2.62,4.83,2.63,1.42,6.57.64,9.39.63l15.74-.06a1.5,1.5,0,0,0,0-3c-6.39,0-13.34.85-19.67.08-1.68-.21-4.31-.49-5.08-2.48-.36-.93,0-2.84,0-3.86l.18-9.45c0-1.93-3-1.93-3,0Z"/><path class="cls-2" d="M563.73,206.5l13.86,0c2.15,0,6.35.93,8-1s-.42-4.93-.65-7c-.49-4.66,1.13-10.15,1.78-14.79.27-1.89-2.62-2.7-2.89-.8-.81,5.78-2.66,12.27-1.51,18.06a6.48,6.48,0,0,0,.35,1q.93,2.46-1.65,1.59c-1.41.46-3.75,0-5.2,0l-12.13,0a1.5,1.5,0,0,0,0,3Z"/><path class="cls-2" d="M310.42,546.94a67.29,67.29,0,0,1,18.51-82.62h-2.12a253.87,253.87,0,0,1,61,73q5.78,10.41,10.54,21.35c.72,1.64,2.89,4.59,2.5,6.42-.25,1.17-.73.78-2,1.36-1.72.81-3.13,2.33-4.79,3.26a50.2,50.2,0,0,1-8.1,3.21c-17.3,6.1-36.66,10.52-53.25.08-12.61-7.93-23.06-22.55-26.29-37.2-.42-1.88-3.31-1.08-2.89.8,2.73,12.39,11.08,26.25,21,34.21,7,5.65,14.8,9.82,23.81,11.09,9.3,1.31,18.68-.1,27.66-2.62,4.85-1.35,9.6-3,14.33-4.74,4.09-1.48,7.69-3.78,11.43-5.83,1.79-1,2.63-1.36,2.33-3.72-.45-3.5-3-7.65-4.47-10.84a252.69,252.69,0,0,0-28.42-48,256.31,256.31,0,0,0-42.23-44,1.56,1.56,0,0,0-2.12,0,70.26,70.26,0,0,0-19,86.26c.85,1.73,3.44.21,2.59-1.52Z"/><path class="cls-7" d="M441.6,318.82c-22.75,11.64-64.48,42.52-34.92,68.2,13.19,11.46,34.41,14.33,51.28,17.06a303.56,303.56,0,0,0,63.89,3.38c3.9-.2,3.92-6,0-5.82C490.38,403.24,457,401,427,391.13c-19.43-6.37-31.72-22.18-17.72-40.24,9-11.6,22.23-20.3,35.41-27.05,3.45-1.76.39-6.79-3.07-5Z"/><path class="cls-7" d="M592.09,342.43c15.78,7.9,32,23.43,29,42.73s-22.38,32.56-40.16,37.28c-38.07,10.11-74-11.25-101.75-35.33-2.81-2.44-6.95,1.66-4.11,4.12,32.13,27.84,75.83,51.74,118.53,32.91,16.87-7.44,33.35-23.27,33.74-42.83.39-19.87-15.72-35.62-32.28-43.9-3.34-1.67-6.29,3.34-2.93,5Z"/><path class="cls-8" d="M457.11,244.44c10.26,4.43,20.35,9.25,30.6,13.7,4.46,1.93,9.66,1.31,12.31-3.23,2.23-3.81,1.26-10.37-3.22-12.32-10.26-4.45-20.35-9.26-30.6-13.7-4.46-1.92-9.66-1.32-12.32,3.23-2.22,3.8-1.25,10.38,3.23,12.32Z"/><path class="cls-8" d="M486.53,303.64c3.75-8.48,14.49-13.17,23.39-13.16a22.29,22.29,0,0,1,20.54,13.36c2,4.41,8.41,5.51,12.31,3.23,4.54-2.65,5.27-7.88,3.23-12.32-6.32-13.73-21.15-22.26-36.08-22.27-14.62,0-32.73,8-38.93,22.08-2,4.44-1.3,9.67,3.23,12.31,3.83,2.24,10.34,1.24,12.31-3.23Z"/><path class="cls-8" d="M536.37,261.32l33.56-13.7c4.49-1.84,7.68-6,6.28-11.07-1.17-4.26-6.54-8.14-11.07-6.29L531.58,244c-4.49,1.83-7.68,6-6.28,11.07,1.17,4.26,6.54,8.13,11.07,6.28Z"/><path class="cls-9" d="M413.81,122.45a152,152,0,0,0,32.4-51.85,174.23,174.23,0,0,0,34-6.48,174.81,174.81,0,0,0,40.5-17.82,211.79,211.79,0,0,0,35.65,16.2,211.23,211.23,0,0,0,40.51,9.72,146.71,146.71,0,0,0,29.16,58.33,104.81,104.81,0,0,1-30.78,40.51l-150.69,1.62a62.32,62.32,0,0,1-30.78-50.23Z"/><path class="cls-10" d="M449.45,133.79v19.45a197.94,197.94,0,0,1,141,0V135.42a132.73,132.73,0,0,0-141-1.63Z"/><path class="cls-11" d="M449.45,153.24v8.1a187.19,187.19,0,0,1,141,1.62v-9.72a198.13,198.13,0,0,0-141,0Z"/><path class="cls-11" d="M449.45,161.34v9.72c12.5,14.62,25.4,20.31,32.41,22.69,10.67,3.62,20.08,3.49,38.88,3.24,16.26-.22,24.39-.33,34-3.24,7.74-2.34,21.66-7.94,35.65-22.69V163a187.19,187.19,0,0,0-141-1.62Z"/><path class="cls-12" d="M499.68,83.57c-6.59,5.28-9.92,12.93-8.1,19.44,1.54,5.51,6.62,9.7,11.34,11.34,6.54,2.27,11.66-.59,16.2,3.24a11.17,11.17,0,0,1,3.24,4.86,11,11,0,0,1,3.24-4.86c4.26-3.54,8.82-.93,14.59-3.24,4.31-1.73,8.76-6,9.72-11.34,1-5.86-2.25-12.19-8.1-16.2a10.27,10.27,0,0,0,6.48-8.1,9.92,9.92,0,0,0-1.62-6.49A12.25,12.25,0,0,1,537,75.46a12.08,12.08,0,0,1-8.1-4.86c-.21.27-4.62,5.76-11.35,4.86a12.48,12.48,0,0,1-8.1-4.86c-2.54,3.64-6.84,4.79-9.72,3.24A7.12,7.12,0,0,1,496.44,69a8.23,8.23,0,0,0,3.24,14.59Z"/><path class="cls-2" d="M452.37,203.11c11.14-.35,22.18-.5,33.23,1.11a215.15,215.15,0,0,0,31.66,2.58c22.18-.07,44.32-2.89,66.45-.35l-.76-2.79c-3.28,2.37-7.46.92-11.1.23L561,201.82l-.4,3,11.11-1.47c2.1-.27,5.43,0,7.31-1.13,3.62-2.12,1.89-8.63,1.79-12-.06-1.93-3.06-1.93-3,0s.61,4.67.19,6.58l0,1.64a6.55,6.55,0,0,1-4.48,1.7c-4.24.85-8.68,1.14-13,1.71-1.51.2-2.24,2.6-.4,2.95,5.26,1,10.53,2.2,15.83,3,3.07.45,5.9.43,8.48-1.44a1.52,1.52,0,0,0-.75-2.8c-22.13-2.54-44.27.28-66.45.35-11.13,0-21.89-1.25-32.9-2.77-10.63-1.47-21.29-1.26-32-.92-1.92.06-1.93,3.06,0,3Z"/><path class="cls-2" d="M529.25,395.53a184.06,184.06,0,0,1,41-10.39c3.61-.48,7.23-.84,10.85-1.1,1.2-.08,4.74-.9,5.55-.3,1.17.86,1.31,4.14,1.51,5.39a209.92,209.92,0,0,1,2.38,24c.08,1.92,3.08,1.93,3,0a216.14,216.14,0,0,0-2.64-25.77c-.33-2-.31-5.13-2.31-6.24-2.57-1.43-7.47-.1-10.25.14a186.11,186.11,0,0,0-49.87,11.38c-1.79.67-1,3.58.8,2.89Z"/><path class="cls-2" d="M510.82,422.88c4.38,3.66,6.93,8.9,10.19,13.49A171.79,171.79,0,0,0,531.91,450c8.41,9.63,17.34,18.82,26.08,28.15l1.06-2.56a9.82,9.82,0,0,1-10.37-8.23c-.38-1.89-3.27-1.09-2.89.8a12.79,12.79,0,0,0,13.26,10.43,1.52,1.52,0,0,0,1.06-2.56c-8.74-9.33-17.67-18.52-26.08-28.15a158.24,158.24,0,0,1-12-15.25c-2.84-4.18-5.2-8.6-9.13-11.88-1.47-1.23-3.61.88-2.12,2.12Z"/><path class="cls-2" d="M560.48,481c7.84-4.2,17.07-7.73,22.7-14.93a29.2,29.2,0,0,0,6-20.36,1.51,1.51,0,0,0-2.95-.4c-2.57,7.06-5.5,12.84-11.6,17.44a140.77,140.77,0,0,1-16.84,10.63c-1.69.93-.17,3.53,1.52,2.59,6.73-3.71,13.64-7.71,19.51-12.73,5.36-4.58,7.94-10.65,10.3-17.13l-2.94-.4a26.22,26.22,0,0,1-7,20.46c-5.33,5.51-13.49,8.66-20.18,12.24-1.7.91-.19,3.5,1.52,2.59Z"/><path class="cls-2" d="M324.79,466.5A71.47,71.47,0,0,1,336,479.81l1.29-2.26a9.54,9.54,0,0,1-9.4-8.91L326,470.08a7.55,7.55,0,0,1,5.91,4.66l1.3-2.25c-1.85.6-3.19-.21-4-2.43l-2.5.67a359.24,359.24,0,0,1,52.72,64.67q5.4,8.49,10.31,17.29c1.26,2.25,4.16,5.88,4.58,8.46.83,5-4.93,7.47-8.41,9.26a58.79,58.79,0,0,1-40.41,4.78v2.89c4.41-.77,8.93,1.48,13.29,2.06a41.68,41.68,0,0,0,11.75-.17,42.44,42.44,0,0,0,20.49-9.31,1.51,1.51,0,0,0-.3-2.36l-33.3-17c-10.28-5.25-21.4-10-28.17-19.85-5.82-8.46-8.24-18.78-10.08-28.73-1.8-9.78-5.09-23.13,3.24-30.84,1.36-1.25-.37-3-1.82-2.35a23.75,23.75,0,0,0-12.72,12.55c-.46,1,.33,2.72,1.7,2.2a10.13,10.13,0,0,0,4.72-3.52c2.5-3.22,3.73-9.25,9-8.89l-1.06-2.56a83.13,83.13,0,0,0-17.41,29c-4.16,12.09-3.37,23.56-1.11,35.95,2,11,5.64,20.21,13.95,27.93,8.68,8.05,19.67,12.78,30.54,17.09,1.8.71,2.57-2.19.8-2.89-10.13-4-20.45-8.42-28.63-15.8s-11.81-16.38-13.77-27.13c-2.11-11.58-2.91-22.21.83-33.55a79.15,79.15,0,0,1,16.92-28.46,1.53,1.53,0,0,0-1.06-2.57c-8.49-.59-8.05,10-14.5,12.52l1.69,2.2A21.53,21.53,0,0,1,322,472.12l-1.82-2.36c-7.3,6.76-6.69,17.15-5.3,26.21,1.73,11.26,3.82,23,9.3,33.1,5.74,10.59,15.22,16.43,25.64,21.77q19.62,10,39.27,20.06l-.3-2.36a39.1,39.1,0,0,1-23.3,8.91c-7.06.27-14-3.46-20.91-2.26-1.47.26-1.38,2.57,0,2.89a62.1,62.1,0,0,0,39.88-3.71c3.89-1.75,13.21-5.4,13.54-10.61.16-2.56-1.69-5.06-2.85-7.22-2.06-3.85-4.21-7.67-6.42-11.45a362.17,362.17,0,0,0-60-76.49,1.52,1.52,0,0,0-2.51.67c-1.51,4.66,3,6.66,6.93,6.22a1.53,1.53,0,0,0,1.29-2.26,10.14,10.14,0,0,0-7.71-6,1.52,1.52,0,0,0-1.9,1.45,12.58,12.58,0,0,0,12.4,11.91,1.51,1.51,0,0,0,1.3-2.26,75.55,75.55,0,0,0-11.63-13.91c-1.41-1.32-3.53.8-2.12,2.12Z"/><path class="cls-2" d="M450.93,180.55a106.38,106.38,0,0,1,1,11.42c.1,3.24.71,7.62-1.17,10.41l2.8.76a61.43,61.43,0,0,1,1.88-9.69h-2.89c.61,3,1,9,4.12,10.64,2,1,5.35.14,7.43-.1,4.17-.5,8.09-1.11,12.28-.34v-2.89c-6.27,1.81-12.6,1.73-19.06,1.51v3l33.71,0a1.5,1.5,0,0,0,0-3l-33.71,0a1.5,1.5,0,0,0,0,3c6.73.23,13.34.26,19.86-1.62,1.33-.38,1.52-2.61,0-2.89-4.45-.82-8.62-.29-13.08.23-1.21.16-2.43.29-3.66.38-2.17.35-3.3-.41-3.41-2.28-1-1.72-1.2-4.51-1.59-6.43-.3-1.49-2.51-1.37-2.89,0a65.45,65.45,0,0,0-2,10.48c-.18,1.61,2.05,1.87,2.79.76,2-3,1.66-6.68,1.62-10.11a115.5,115.5,0,0,0-1.11-14c-.26-1.91-3.15-1.1-2.9.79Z"/><path class="cls-2" d="M582.82,183.22c.59,3.89,4.84,19.63.64,21.06-2.48.84-6.76.08-9.42.1-3.7,0-7.21-.1-10.73-1.35l.36,2.74a33.09,33.09,0,0,1,15-3.46l-.76-2.8a28.93,28.93,0,0,1-14.52,4.87c-1.91.12-1.95,3,0,3l13.06-.24c1.66,0,2.09-2.54.4-2.94-4.66-1.12,2.85-10.36,3.72-11.33a1.53,1.53,0,0,0,0-2.13c-2.19-1.76-4.33-.44-6.73.56a72.5,72.5,0,0,0-13.23,7.29c-1.1.75-.86,3,.75,2.79a34.39,34.39,0,0,0,18.16-7.33c1.41-1.11-.39-3.06-1.82-2.36a84.77,84.77,0,0,0-12.91,8.11,1.51,1.51,0,0,0,1.16,2.74,40.49,40.49,0,0,0,14.34-6.91l-2.06-.54c3,4.32-15.86,7.36-17.69,7.49a117.46,117.46,0,0,1-16.46-.3v3l36.25-.5c1.93,0,1.93-3,0-3l-36.25.5a1.5,1.5,0,0,0,0,3c8.76.57,17.86,1.11,26.42-1.33,3.94-1.13,14.27-4.59,10.32-10.37a1.51,1.51,0,0,0-2.05-.54,38.32,38.32,0,0,1-13.62,6.6l1.15,2.75a85.27,85.27,0,0,1,12.91-8.11l-1.81-2.35a30.83,30.83,0,0,1-16,6.45l.76,2.8a75.12,75.12,0,0,1,7.15-4.42c1.42-.75,8.11-4.75,9.18-3.89v-2.13c-3,3.39-10.75,14.35-2.39,16.35l.39-3-13.06.24v3a31.91,31.91,0,0,0,16-5.28,1.51,1.51,0,0,0-.75-2.79,36.74,36.74,0,0,0-16.53,3.87c-1.25.61-.76,2.34.36,2.74,4.33,1.54,8.71,1.48,13.25,1.44,3.18,0,8.84,1.11,11.61-.81,2.29-1.59,1.29-4.55,1-6.83l-2.61-17.3c-.28-1.9-3.17-1.1-2.89.8Z"/><path class="cls-2" d="M585.43,204.3c0,.52.26,1.81,0,2.23-.37.64-1.31.43-1.92.44-1,0-3.89.3-4.38,0v2.59a62.15,62.15,0,0,0,8.09-4.22L585.41,203c-.49.56-1.66,2.86-2.49,2.59l-.4,2.95c1.24-.06,3.06.22,4.08-.62s.59-2.09.34-3.22c-.37-1.68-2.91-1.25-2.94.4a10.4,10.4,0,0,0,.19,2.16c.3,1.72,2.91,1.24,2.94-.39s0-3,0-4.48a1.5,1.5,0,0,0-3,0,28.23,28.23,0,0,1,0,3.68l.44-1.06-.13.15,1.46-.39c.41.24.41.1,0-.43-.1-.32-.2-.64-.29-1a12.06,12.06,0,0,0-.48-1.31,3,3,0,0,0-1.81-1.86c-2.4-.64-3.16,3.07-5.2,3.58a1.52,1.52,0,0,0,0,2.9,2,2,0,0,0,1.24,0c1.8-.66,1-3.56-.79-2.9l.35,0v2.9a5.54,5.54,0,0,0,2.49-1.38c.74-.69,1.24-1.84,2.09-2.4l-1.15.16c.27.06.8,2.49,1,2.89.4.83,1,1.66,2,1.73,2.58.19,1.85-3.8,1.84-5.3h-3c0,1.49,0,3,0,4.48l3-.4a4.84,4.84,0,0,1-.08-1.37l-3,.4a11.11,11.11,0,0,1,.22,1.15l.44-1.06s-2-.06-2.19-.05a1.51,1.51,0,0,0-.4,2.95c2.82.89,3.88-1.65,5.42-3.37,1.09-1.22-.31-3.29-1.82-2.35a62.86,62.86,0,0,1-8.1,4.22,1.52,1.52,0,0,0,0,2.59c1.15.68,2.69.4,4,.4a19.56,19.56,0,0,0,4-.13c3-.65,2.6-3.13,2.8-5.54.16-1.92-2.85-1.91-3,0Z"/><path class="cls-2" d="M451.22,192.73c-.56,1.86-4.7,10.11,0,10.27a1.51,1.51,0,0,0,1.44-1.1,38,38,0,0,1,2.11-8.2h-2.9a40.6,40.6,0,0,1,.36,7.79l2.56-1.06a13.48,13.48,0,0,1-.36-4,1.5,1.5,0,0,0-3,0l0,7,2.25-1.29c-.78.68-.62.4.48-.87l1.79-2.41h-2.59c2.07,4.7,2.67,6.47,7.89,6.12,5.86-.38,11.59,0,17.44-.94,1.65-.26,1.28-3.11-.4-2.95a13.59,13.59,0,0,1-8.75-1.68,34.77,34.77,0,0,0-5-2.27C458,194.7,454,189.34,454.4,182.18l-2.56,1.06c4.74,6.11,11.12,10.27,17.82,13.94s12.88,6.82,20.6,7.71l-.4-2.94c-5.53,1.72-9.86-.36-15.26-.82-5.09-.42-10.79.9-15.72-.49a1.51,1.51,0,0,0-.8,2.9c5.27,1.48,11.1.07,16.52.59,5.88.57,10.11,2.56,16.06.71a1.51,1.51,0,0,0-.4-3c-7.65-.88-14-4.43-20.65-8.17-5.94-3.34-11.44-7.17-15.65-12.6-.86-1.11-2.49-.09-2.56,1.06-.34,6.19,2.36,12.91,8,16.13,3,1.69,6.33,2.42,9.32,4.13,3.18,1.81,5.93,2,9.55,1.62l-.4-2.94a73.8,73.8,0,0,1-12.6.77,46.49,46.49,0,0,1-4.84.16c-2.95-.38-3.43-2.31-4.5-4.73-.5-1.15-2-.79-2.59,0-1.77,2.38-5.08,5.39-1.19,7.38a1.52,1.52,0,0,0,2.26-1.3l0-7h-3c0,2.12-.27,4.48,1.24,6.12a1.52,1.52,0,0,0,2.56-1.06,45.71,45.71,0,0,0-.46-8.59c-.24-1.62-2.44-1.21-2.9,0a38.73,38.73,0,0,0-2.1,8.2l1.45-1.1c1.82.06,2.56-5.29,2.92-6.47.55-1.85-2.34-2.65-2.9-.8Z"/><path class="cls-2" d="M488.79,207a181.82,181.82,0,0,1,25-1.75v-3l-7.63.53a1.5,1.5,0,0,0,0,3,231.43,231.43,0,0,0,29.56-.46c1.9-.15,2-3,0-3l-24.4.05a1.52,1.52,0,0,0-1.06,2.56c4.74,4.16,10.62,3.75,16.55,3.08,9.61-1.07,19.21-2.2,28.81-3.3,1.9-.22,1.92-3.22,0-3l-22.85,2.62c-6.28.72-15.11,3.12-20.38-1.52l-1.07,2.56,24.4-.05v-3a231.43,231.43,0,0,1-29.56.46v3l7.63-.53c1.9-.14,2-3,0-3a188.79,188.79,0,0,0-25.8,1.85c-1.9.27-1.09,3.16.8,2.9Z"/><path class="cls-2" d="M542.91,463.88a168.06,168.06,0,0,1,14.23,15.58L558.6,477a11,11,0,0,1-5.52-3.82l-1.46,2.51c4,1.12,5.91,5.53,10.56,4.53,4.36-.94,8.9-4.76,12.12-7.73,1.06-1,.12-2.41-1.07-2.56-2-.26-3,.76-4.53,2a40.82,40.82,0,0,1-9.35,5.89l1.82,2.36a26.84,26.84,0,0,0,4.77-8.83,1.52,1.52,0,0,0-1.85-1.85,17.13,17.13,0,0,1-13.75-1.6c-1.45-.82-3.12,1.18-1.82,2.35a78,78,0,0,0,10.54,8v-2.59c-3.24,1.42-7.25-6.84-8.71-8.75a57.36,57.36,0,0,0-5.32-6c-1.26-1.26-3,.33-2.35,1.82a15,15,0,0,0,3.54,4.87l1.46-2.51-1.14-.49-2.35,1.81c3,2.93,5.92,5.9,8.8,8.94,1.34,1.4,3.46-.72,2.13-2.12-2.89-3-5.82-6-8.81-8.94a1.51,1.51,0,0,0-2.36,1.82,3.35,3.35,0,0,0,2.93,1.87c1.36.2,2.67-1.37,1.46-2.5a13.48,13.48,0,0,1-3.07-4.26L542.91,463c4.09,4.08,6.47,9.18,10.19,13.41,2.08,2.37,4.61,3.1,7.48,1.84,1.09-.48.85-2.05,0-2.59a72.8,72.8,0,0,1-9.94-7.54l-1.82,2.36a20.36,20.36,0,0,0,16.07,1.91L563,470.52a22.56,22.56,0,0,1-4,7.51,1.51,1.51,0,0,0,1.82,2.35,39.53,39.53,0,0,0,6.66-3.73c1.48-1,3.82-4,5.7-3.77l-1.06-2.56c-3.16,2.92-9.67,8.35-14,5.87-2.09-1.19-3.29-2.77-5.71-3.44a1.52,1.52,0,0,0-1.46,2.51,13.67,13.67,0,0,0,6.85,4.58c1.55.5,2.35-1.44,1.46-2.5A166.67,166.67,0,0,0,545,461.76c-1.41-1.32-3.54.8-2.12,2.12Z"/><path class="cls-3" d="M542.51,478.74c1.71,1,4.57,2,5.89,3.48a7.09,7.09,0,0,1,1.44,1L547.48,485c-.78.59-1.16,2.1,0,2.6s2.87,1.11,4.25.34c.51-.28,2.15-3.08,1.65-3.08l-1.29-2.26a15.79,15.79,0,0,1-8.15,6c-2.24.63-2,.66-3.14-1.08-.7-1.05-1.15-2.33-1.79-3.43a41.66,41.66,0,0,0-9.89-11.27l-.66,2.51c2.89-1,8.15,2.73,10.61,4a74.88,74.88,0,0,0,7,3.48c.8.31,2,.31,2.72.65.94,0,1.06.07.37.12a2.33,2.33,0,0,0-1.83,1c-3.54,2.05-2.9,2.16-5.62-1.11L535.57,476c-.82-1-1.68-2-2.47-3-2.19-2.83-2-1.91-1.05-1.58,2.55.92,5.14,3.15,7.33,4.72,4.78,3.44,3.37,4.14-1,6.72l2.21,1.69a22.81,22.81,0,0,0,1.05-9.91c-.12-1.17-1.62-2.13-2.56-1.06l-7,7.89c-1.28,1.44.84,3.57,2.12,2.12l7-7.89-2.56-1.06a21.19,21.19,0,0,1-1,9.12,1.52,1.52,0,0,0,2.21,1.69c2.34-1.38,5.49-3.11,6.77-5.61a1.48,1.48,0,0,0,0-1.52c-2.56-3.39-7.26-6-10.82-8.15-1.52-.94-5.46-4.45-7.34-2.26-1.6,1.89,1,5.27,2.07,6.67,2.09,2.72,4.39,5.31,6.59,8,1.57,1.9,3.41,5.41,5.59,6.51,2.67,1.33,5.4-1.44,7.52-2.89,1.53-1,3.87-2.48,2.53-4.57-.64-1-1.31-.81-2.3-1.15-2.09-.73-4.31-1.05-6.44-2-1.47-.66-2.89-1.46-4.32-2.19-3.55-1.8-7.9-5.29-12.06-3.84-1,.33-1.61,1.74-.66,2.5a39.28,39.28,0,0,1,9,10c1.22,2,2.13,6.16,4.41,7.14,2,.86,5.54-.9,7.32-1.82a20,20,0,0,0,6.93-6.17,1.5,1.5,0,0,0-1.3-2.25c-1.55,0-3.8,3.39-4.39,3.14v2.6a22.11,22.11,0,0,0,4.45-3.71,1.44,1.44,0,0,0,0-1.51c-2.12-2.87-6.38-4.48-9.42-6.23a1.5,1.5,0,0,0-1.51,2.59Z"/><path class="cls-3" d="M451.57,209.3q.3,8,.1,16.09h3a67,67,0,0,0-2.62-16L451,211.22a22.07,22.07,0,0,1,9.9-.17c.37.07,3.86.58,4,.9l.12-.36a22.7,22.7,0,0,1-2.32,1.94c-3.28,2.47-7,4.38-9.73,7.52-1.44,1.66-4.23,5.53-2.45,7.83a2.25,2.25,0,0,0,4-.84c.58-1.84-2.31-2.63-2.9-.79-.08.26,3.55-4.16,3.86-4.51a20.91,20.91,0,0,1,2.37-2.14c1.74-1.38,3.65-2.53,5.46-3.81s5.19-3.14,5.34-5.64a1.47,1.47,0,0,0-.75-1.29c-2.18-1.34-5.46-1.63-8-2a24.27,24.27,0,0,0-9.75.45,1.53,1.53,0,0,0-1.05,1.85,63.32,63.32,0,0,1,2.52,15.22,1.5,1.5,0,0,0,3,0q.21-8.05-.1-16.09c-.08-1.93-3.08-1.94-3,0Z"/><path class="cls-2" d="M450,197.55c-.18,3-2.29,7.26,1.51,8.86,1.45.61,3.18.39,4.72.39H462c3.86,0,3.87-6,0-6h-7.68c-1.2-.14-1.06.12.42.79l.41,1.52c.23-1.86.75-3.66.86-5.56.25-3.85-5.75-3.84-6,0Z"/></g></svg>