<svg xmlns="http://www.w3.org/2000/svg" viewBox="0 0 752.39 625"><defs><style>.cls-1{fill:#ccc;opacity:0.18;}.cls-2{fill:#be96fa;}.cls-3{fill:#9250f7;}.cls-4{fill:#8f71bb;}.cls-5{fill:#2a193f;}.cls-6{fill:#fefefe;}.cls-7{fill:#b5e0ff;}.cls-13,.cls-8{fill:#ef7a85;}.cls-8{stroke:#ef7a85;}.cls-10,.cls-11,.cls-16,.cls-8,.cls-9{stroke-miterlimit:10;}.cls-14,.cls-9{fill:#b35c64;}.cls-9{stroke:#b35c64;}.cls-10,.cls-12{fill:#f2959d;}.cls-10{stroke:#f2959d;}.cls-11{fill:#3c1f21;stroke:#3c1f21;}.cls-15{fill:#fff;}.cls-16{fill:none;stroke:#9250f7;stroke-linecap:round;}</style></defs><title>illustration222</title><g id="Capa_1" data-name="Capa 1"><ellipse class="cls-1" cx="578.21" cy="479.89" rx="161.91" ry="12.91"/><path class="cls-2" d="M705.91,424.3a1.25,1.25,0,0,1-1.23,1.28h0a1.26,1.26,0,0,1-1.26-1.23,53,53,0,0,0-11.16-31.41q0-1.92-.09-4.08a55.63,55.63,0,0,1,13.77,35.44Z"/><path class="cls-3" d="M691.2,405.2a1.26,1.26,0,0,0,1.34-1.18v-.08h0c.11,1.38.32,2.91.53,4.51,1.11,8.15,2.62,19.31-7.41,25-.75.42-1.82,1.05-3.15,1.84l.07-.09a1.26,1.26,0,0,0-.21-1.77c-.24-.18-.47-.37-.71-.57l2.75-1.6c8.55-4.89,7.29-14.25,6.17-22.51-.17-1.26-.34-2.48-.46-3.64Z"/><path class="cls-3" d="M692.54,403.94V404a1.26,1.26,0,0,1-1.34,1.18l-1.07-.05c-.08-.73-.14-1.43-.17-2.1,0,0,0-.17,0-.43.47,0,.95,0,1.42.07A1.25,1.25,0,0,1,692.54,403.94Z"/><path class="cls-2" d="M692.48,402.93c0,.33,0,.67.07,1h0a1.25,1.25,0,0,0-1.17-1.25c-.47,0-1-.06-1.42-.07,0-1.46-.16-6.48-.32-13.24a1.2,1.2,0,0,0,.31.8c.8.9,1.57,1.81,2.29,2.76C692.38,398.83,692.47,402.73,692.48,402.93Z"/><path class="cls-2" d="M692.14,388.86q0,2.16.09,4.08c-.72-.95-1.49-1.86-2.29-2.76a1.2,1.2,0,0,1-.31-.8.17.17,0,0,1,0-.07,1.36,1.36,0,0,1,.42-.91,1.28,1.28,0,0,1,1.79.11Z"/><path class="cls-2" d="M691.83,388.51a1.28,1.28,0,0,0-1.79-.11,1.36,1.36,0,0,0-.42.91c-.26-10.8-.63-26-.92-38.23l1.2,0h0a1.25,1.25,0,0,0,1.25-1.21c.31,12.26.68,27.85,1,39Z"/><path class="cls-2" d="M691.18,349.79a.28.28,0,0,1,0,.09s0,0,0,0A.21.21,0,0,0,691.18,349.79Z"/><path class="cls-3" d="M691.18,349.79a.21.21,0,0,1,0,.11,1.25,1.25,0,0,1-1.25,1.21h0l-1.2,0c0-.86,0-1.7-.06-2.53l1.32,0a1.25,1.25,0,0,1,1.22,1.13A.16.16,0,0,1,691.18,349.79Z"/><path class="cls-3" d="M690.59,408.79c1.12,8.26,2.38,17.62-6.17,22.51l-2.75,1.6a55,55,0,0,1-15.82-20.81,40.27,40.27,0,0,1,24.28-6.94C690.25,406.31,690.42,407.53,690.59,408.79Z"/><path class="cls-3" d="M690,403.05c0,.67.09,1.37.17,2.1a40.27,40.27,0,0,0-24.28,6.94,55,55,0,0,0,15.82,20.81l-2.32,1.36a57.6,57.6,0,0,1-16.22-22.14,1.25,1.25,0,0,1,.42-1.51,43.13,43.13,0,0,1,13.07-6.33A42.36,42.36,0,0,1,690,402.62C690,402.88,690,403,690,403.05Z"/><path class="cls-2" d="M690,402.62a42.36,42.36,0,0,0-13.33,1.66,43.13,43.13,0,0,0-13.07,6.33,1.25,1.25,0,0,0-.42,1.51,57.6,57.6,0,0,0,16.22,22.14l-.49.3c-3.75,2.21-9.23,5.44-15.38,9-9.72,5.59-21.13,11.92-30.07,16.17A94.11,94.11,0,0,0,611,429.09c7-4.91,10-6.94,12.88-8.91,3.09-2.12,6.28-4.3,14.41-10a21.73,21.73,0,0,0,7.34-8.16c.77-1.54,1.28-4.75,1.69-9.86.44-5.54.76-13.32,1.15-23.62.22-5.77.45-11.93.76-18.37l39.48.91c.29,12.22.66,27.43.92,38.23a.17.17,0,0,0,0,.07C689.79,396.14,689.91,401.16,690,402.62Z"/><path class="cls-3" d="M688.7,351.08l-39.48-.91c0-.83.07-1.67.11-2.52l39.31.9C688.66,349.38,688.68,350.22,688.7,351.08Z"/><path class="cls-3" d="M688.64,348.55l-39.31-.9c.26-5.32.57-10.81.95-16.41l38,.72C688.3,334.56,688.45,340.79,688.64,348.55Z"/><path class="cls-2" d="M681.91,435.68l.61-.35A1.26,1.26,0,0,1,681.91,435.68Z"/><path class="cls-2" d="M681.74,435.72l.17,0-.17.11Z"/><path class="cls-4" d="M681.74,435.79l0,42a1.26,1.26,0,0,1-1.26,1.26h-7.68a1.26,1.26,0,0,1,0-2.52h6.42l.05-39.21.92-.55Z"/><path class="cls-2" d="M681.74,435.72v.07l-1.6.94-.92.55v-2.13a1.27,1.27,0,0,1,.27-.78c.44.37.88.73,1.33,1.08a1.23,1.23,0,0,0,.78.28Z"/><path class="cls-3" d="M680.82,435.45c-.45-.35-.89-.71-1.33-1.08a1.25,1.25,0,0,1,1-.48,1.22,1.22,0,0,1,.88.37,1.27,1.27,0,0,1,.38.89v.57h-.14A1.23,1.23,0,0,1,680.82,435.45Z"/><path class="cls-3" d="M680.48,433.89a1.25,1.25,0,0,0-1,.48l-.14-.11,2.32-1.36c.24.2.47.39.71.57a1.26,1.26,0,0,1,.21,1.77l-.07.09-.61.35-.17,0v-.57a1.27,1.27,0,0,0-.38-.89A1.22,1.22,0,0,0,680.48,433.89Z"/><path class="cls-4" d="M663.19,446.61l2.52-1.45-.17,32.6a1.25,1.25,0,0,1-1.26,1.25H657a1.26,1.26,0,0,1,0-2.52H663Z"/><path class="cls-2" d="M665.71,445.16l-2.52,1.45V445a1.28,1.28,0,0,1,.56-1,1.24,1.24,0,0,1,.7-.22h0a1.25,1.25,0,0,1,1.25,1.27Z"/><path class="cls-2" d="M679.49,434.37a1.27,1.27,0,0,0-.27.78v2.13c-4.5,2.65-9,5.3-13.51,7.88v-.11a1.25,1.25,0,0,0-1.25-1.27h0a1.24,1.24,0,0,0-.7.22l-.27-.46c6.15-3.54,11.63-6.77,15.38-9l.49-.3Z"/><path class="cls-3" d="M649.33,347.65c0,.85-.08,1.69-.11,2.52l-1.3,0a1.23,1.23,0,0,1-1.18-.94l0-.75a1.27,1.27,0,0,1,1.19-.83h0Z"/><path class="cls-3" d="M646.77,348.45c.29-6,.64-12.22,1.08-18.58a1.25,1.25,0,0,1,1.25-1.17h0l40.36.77a1.25,1.25,0,0,1,1.23,1.22c0,.24.21,8.34.46,19a1.25,1.25,0,0,0-1.22-1.13l-1.32,0c-.19-7.76-.34-14-.4-16.59l-38-.72c-.38,5.6-.69,11.09-.95,16.41l-1.34,0h0A1.27,1.27,0,0,0,646.77,348.45Z"/><path class="cls-2" d="M647.09,391.3a1.28,1.28,0,0,1,.22.86,1.26,1.26,0,0,1-.55.89,19.89,19.89,0,0,1-2.18,1.3c.09-.94.18-2,.26-3.05.18-.11.35-.22.5-.33A1.27,1.27,0,0,1,647.09,391.3Z"/><path class="cls-2" d="M646.76,393.05a1.26,1.26,0,0,0,.55-.89c-.41,5.11-.92,8.32-1.69,9.86a21.73,21.73,0,0,1-7.34,8.16c-8.13,5.7-11.32,7.88-14.41,10-2.88,2-5.86,4-12.88,8.91-.41-.38-.82-.74-1.22-1.1a1.26,1.26,0,0,0-1.25-.24c7.77-5.45,10.9-7.59,13.93-9.66s6.27-4.28,14.4-10a19.29,19.29,0,0,0,6.51-7.22c.51-1,.9-3.3,1.22-6.54A19.89,19.89,0,0,0,646.76,393.05Z"/><path class="cls-2" d="M646.77,348.45l0,.75a1.27,1.27,0,0,1,0-.34A1.41,1.41,0,0,1,646.77,348.45Z"/><path class="cls-2" d="M647.09,391.3a1.27,1.27,0,0,0-1.75-.33c-.15.11-.32.22-.5.33.46-6,.77-14.09,1.1-22.85.23-6,.48-12.51.8-19.25a1.23,1.23,0,0,0,1.18.94l1.3,0c-.31,6.44-.54,12.6-.76,18.37-.39,10.3-.71,18.08-1.15,23.62A1.28,1.28,0,0,0,647.09,391.3Z"/><path class="cls-2" d="M644.84,391.3c-.08,1.09-.17,2.11-.26,3.05a19.47,19.47,0,0,1-8.82,2.15c-.58,0-1.18,0-1.79-.09A20,20,0,0,1,620.5,389a1.27,1.27,0,0,1-.27-.75,87.81,87.81,0,0,0-20-53.85c0-1.28-.07-2.62-.1-4a90.37,90.37,0,0,1,22.56,57.36,17.38,17.38,0,0,0,11.47,6.14A16.94,16.94,0,0,0,644.84,391.3Z"/><path class="cls-2" d="M663.48,443.54l.27.46a1.28,1.28,0,0,0-.56,1v1.57C652,453,641.46,458.78,633.31,462.56h0a1.26,1.26,0,0,0,.64-1.66c-.18-.4-.35-.79-.54-1.18C642.35,455.46,653.76,449.13,663.48,443.54Z"/><path class="cls-3" d="M634,460.89a1.26,1.26,0,0,1-.64,1.66,1.17,1.17,0,0,1-.51.11,1.28,1.28,0,0,1-1.16-.75l-.51-1.13c.74-.33,1.5-.69,2.28-1.07C633.6,460.1,633.77,460.49,634,460.89Z"/><path class="cls-3" d="M631.64,461.91a1.28,1.28,0,0,0,1.16.75,1.17,1.17,0,0,0,.51-.11h0c-5.57,2.59-10,4.25-12.72,4.53-.51,0-1,.05-1.5.05-8.11,0-14-4.61-17.67-13.71a22,22,0,0,1,6.52-25.28h0a1.27,1.27,0,0,0,.14,1.75l.83.74a19.5,19.5,0,0,0-5.17,21.87c3.45,8.65,8.89,12.59,16.62,12.08,2.25-.23,6.06-1.66,10.75-3.8Z"/><path class="cls-3" d="M618.72,440.88a92.47,92.47,0,0,1,12.41,19.9c-4.69,2.14-8.5,3.57-10.75,3.8-7.73.51-13.17-3.43-16.62-12.08a19.5,19.5,0,0,1,5.17-21.87A92,92,0,0,1,618.72,440.88Z"/><path class="cls-3" d="M618.72,440.88a92,92,0,0,0-9.79-10.25l.58-.5,1.48-1a94.11,94.11,0,0,1,22.42,30.62c-.78.38-1.54.74-2.28,1.07A92.47,92.47,0,0,0,618.72,440.88Z"/><path class="cls-3" d="M609.51,430.13l-.58.5-.83-.74a1.27,1.27,0,0,1-.14-1.75l.06,0,.5-.35a1.26,1.26,0,0,1,1.25.24c.4.36.81.72,1.22,1.1Z"/><path class="cls-2" d="M608.52,427.75l-.5.35-.06,0,0,0A1.15,1.15,0,0,1,608.52,427.75Z"/><path class="cls-3" d="M600.85,354.83c.18,2.3.53,4.84.89,7.5,1.88,13.86,4.21,31.1-11.76,40.23-1.24.71-3.05,1.77-5.29,3.09v0a1.26,1.26,0,0,0-.21-1.77l-.73-.58c2.09-1.23,3.79-2.23,5-2.91,14.49-8.27,12.28-24.58,10.5-37.69-.32-2.32-.62-4.56-.81-6.64l1.07.06a1.28,1.28,0,0,0,1.34-1.18v-.08Z"/><path class="cls-3" d="M600.84,354.83v.08a1.28,1.28,0,0,1-1.34,1.18l-1.07-.06c-.09-.88-.16-1.72-.19-2.54l1.43.08A1.27,1.27,0,0,1,600.84,354.83Z"/><path class="cls-2" d="M600.74,353.2c0,.53.07,1.07.11,1.63h0a1.27,1.27,0,0,0-1.17-1.26l-1.43-.08a1.11,1.11,0,0,1,0-.17c0-.27-.23-9.36-.55-22.42a1.28,1.28,0,0,0,.32.84c.78.88,1.54,1.77,2.29,2.67C600.55,345.44,600.73,352.89,600.74,353.2Z"/><path class="cls-2" d="M600.18,330.41c0,1.38.07,2.72.1,4-.75-.9-1.51-1.79-2.29-2.67a1.28,1.28,0,0,1-.32-.84,1.26,1.26,0,0,1,2.2-.84Z"/><path class="cls-3" d="M599.24,362.67c1.78,13.11,4,29.42-10.5,37.69-1.19.68-2.89,1.68-5,2.91a91,91,0,0,1-26.86-35.38A66.83,66.83,0,0,1,598.43,356C598.62,358.11,598.92,360.35,599.24,362.67Z"/><path class="cls-2" d="M598.62,266.27V266a1,1,0,0,1,0,.17A.2.2,0,0,1,598.62,266.27Z"/><path class="cls-2" d="M597.37,267.42a1.25,1.25,0,0,0,1.25-1.15c.49,20.18,1.12,45.92,1.56,64.14l-.31-.35a1.26,1.26,0,0,0-2.2.84c-.44-17.92-1-43.31-1.54-63.5l1.21,0Z"/><path class="cls-3" d="M598.24,353.49c0,.82.1,1.66.19,2.54a66.83,66.83,0,0,0-41.53,11.86,91,91,0,0,0,26.86,35.38l-2.32,1.37a93.84,93.84,0,0,1-27.26-36.72,1.26,1.26,0,0,1,.43-1.51,69.52,69.52,0,0,1,43.63-12.92Z"/><path class="cls-2" d="M598.22,353.32a1.11,1.11,0,0,0,0,.17,69.52,69.52,0,0,0-43.63,12.92,1.26,1.26,0,0,0-.43,1.51,93.84,93.84,0,0,0,27.26,36.72c-.58.34-1.19.69-1.81,1.07-6.49,3.83-15.31,9-25,14.63-16.43,9.45-35.46,20-50.24,27A154.34,154.34,0,0,0,466.71,396c12.1-8.47,17.1-11.89,21.93-15.19,5.06-3.46,10.3-7,23.63-16.38A34.86,34.86,0,0,0,524,351.31c1.29-2.55,2.14-8.57,2.79-17.27.72-9.55,1.21-22.32,1.78-37.26.37-9.71.77-20.08,1.28-30.9l66.26,1.52c.49,20.19,1.1,45.58,1.54,63.5C598,344,598.21,353.05,598.22,353.32Z"/><path class="cls-3" d="M598.62,266.27a1.25,1.25,0,0,1-1.25,1.15h0l-1.21,0c0-.85,0-1.7-.06-2.53l1.33,0a1.25,1.25,0,0,1,1.21,1.11v.26Z"/><path class="cls-3" d="M596.13,267.4l-66.26-1.52.12-2.52,66.08,1.51C596.09,265.7,596.11,266.55,596.13,267.4Z"/><path class="cls-3" d="M530,263.36c.44-9.23,1-18.78,1.64-28.51l63.75,1.21c.08,3.75.36,14.85.69,28.81Z"/><path class="cls-2" d="M584.69,405.65a1.24,1.24,0,0,1-.75.44Z"/><path class="cls-3" d="M584.69,405.65l-.75.44-.22,0a1.2,1.2,0,0,1-.59-.15,1.3,1.3,0,0,0-.37-.87,1.25,1.25,0,0,0-.89-.37.92.92,0,0,0-.29,0l-.14-.12,2.32-1.37.73.58a1.26,1.26,0,0,1,.21,1.77Z"/><path class="cls-2" d="M583.13,406a1.2,1.2,0,0,0,.59.15l.22,0-.81.47V406Z"/><path class="cls-4" d="M583.13,406.56l-.07,69.24a1.26,1.26,0,0,1-1.26,1.26H569.2a1.26,1.26,0,0,1,0-2.52h11.34l.07-66.48.3-.18Z"/><path class="cls-3" d="M583.13,406a1.06,1.06,0,0,1-.2-.12l-1.35-1.08a.92.92,0,0,1,.29,0,1.25,1.25,0,0,1,.89.37A1.3,1.3,0,0,1,583.13,406Z"/><path class="cls-2" d="M582.93,405.84a1.06,1.06,0,0,0,.2.12v.6l-2.22,1.32-.3.18V406a1.24,1.24,0,0,1,1-1.22Z"/><path class="cls-4" d="M556.88,422.19l-.28,53.62a1.27,1.27,0,0,1-1.26,1.25h-12a1.26,1.26,0,0,1,0-2.52h10.72l.26-51.16,2.5-1.44A1.07,1.07,0,0,1,556.88,422.19Z"/><path class="cls-2" d="M555.62,420.93h0a1.21,1.21,0,0,0-.6.15l-.42-.74c9.72-5.61,18.54-10.8,25-14.63.62-.38,1.23-.73,1.81-1.07l.14.12a1.24,1.24,0,0,0-1,1.22v2.08c-6.24,3.68-14.56,8.58-23.76,13.88A1.26,1.26,0,0,0,555.62,420.93Z"/><path class="cls-2" d="M556.85,421.94l-2.5,1.44v-1.2a1.25,1.25,0,0,1,.66-1.1,1.21,1.21,0,0,1,.6-.15h0A1.26,1.26,0,0,1,556.85,421.94Z"/><path class="cls-2" d="M555,421.08a1.25,1.25,0,0,0-.66,1.1v1.2c-16.43,9.42-35.24,19.82-49.91,26.65a1.24,1.24,0,0,0,.44-1.55c-.17-.38-.34-.76-.52-1.14,14.78-7,33.81-17.55,50.24-27Z"/><path class="cls-3" d="M528.57,263.33a1.27,1.27,0,0,0-1.14.72c.47-9.87,1-20.12,1.77-30.57a1.26,1.26,0,0,1,1.26-1.17h0l66.15,1.26a1.25,1.25,0,0,1,1.23,1.23c0,.39.33,13.67.75,31.21a1.25,1.25,0,0,0-1.21-1.11l-1.33,0c-.33-14-.61-25.06-.69-28.81l-63.75-1.21c-.67,9.73-1.2,19.28-1.64,28.51l-1.39,0Z"/><path class="cls-3" d="M527.43,264.05a1.27,1.27,0,0,1,1.14-.72h0l1.39,0-.12,2.52-1.32,0a1.26,1.26,0,0,1-1.16-.84C527.4,264.69,527.41,264.37,527.43,264.05Z"/><path class="cls-2" d="M527.39,265a1.33,1.33,0,0,1-.08-.45,1.46,1.46,0,0,1,.12-.51C527.41,264.37,527.4,264.69,527.39,265Z"/><path class="cls-2" d="M526.67,334a1.28,1.28,0,0,1-.23.72,16.31,16.31,0,0,1-2.43,2.69c.11-1.28.23-2.64.34-4.08a.16.16,0,0,1,0-.06,1.26,1.26,0,0,1,1.75-.3A1.23,1.23,0,0,1,526.67,334Z"/><path class="cls-2" d="M528.59,296.78c-.57,14.94-1.06,27.71-1.78,37.26h-.14a1.23,1.23,0,0,0-.54-1,1.26,1.26,0,0,0-1.75.3.16.16,0,0,0,0,.06c.69-9.56,1.18-22.33,1.73-36.68.38-9.94.78-20.57,1.31-31.67a1.26,1.26,0,0,0,1.16.84l1.32,0C529.36,276.7,529,287.07,528.59,296.78Z"/><path class="cls-2" d="M524.35,333.36c-.11,1.44-.23,2.8-.34,4.08a15,15,0,0,1-10,4.17h-.22A12.88,12.88,0,0,1,504,337.4c-3.29-3.8-3-8.4-2.83-10.37.64-9.06,8.32-14.61,10.67-16.09a1.26,1.26,0,1,1,1.35,2.13c-2.09,1.32-8.94,6.26-9.5,14.14-.12,1.66-.39,5.53,2.21,8.54a10.6,10.6,0,0,0,7.89,3.34H514C520,339.09,523.77,334.17,524.35,333.36Z"/><path class="cls-3" d="M504.88,448.48a1.24,1.24,0,0,1-.44,1.55l-.37.18a1.27,1.27,0,0,1-.34,0,1.25,1.25,0,0,1-1.15-.75c-.16-.37-.33-.73-.5-1.1l2.28-1.06C504.54,447.72,504.71,448.1,504.88,448.48Z"/><path class="cls-2" d="M504.07,450.21l.37-.18a1.32,1.32,0,0,1-.2.12A.85.85,0,0,1,504.07,450.21Z"/><path class="cls-3" d="M481.29,414.86a152.73,152.73,0,0,1,20.79,33.54c-8.09,3.72-14.72,6.21-18.64,6.61-13.07.87-22.24-5.77-28-20.31a32.78,32.78,0,0,1,9.23-37.22A152.75,152.75,0,0,1,481.29,414.86Z"/><path class="cls-2" d="M526.44,334.75a1.28,1.28,0,0,0,.23-.72h.14c-.65,8.7-1.5,14.72-2.79,17.27a34.86,34.86,0,0,1-11.75,13.08c-13.33,9.34-18.57,12.92-23.63,16.38-4.83,3.3-9.83,6.72-21.93,15.19-.42-.38-.83-.74-1.26-1.11a1.27,1.27,0,0,0-1.16-.28c12.82-9,18-12.49,22.93-15.88s10.29-7,23.61-16.38a32.3,32.3,0,0,0,10.94-12.13c1-1.91,1.67-6.38,2.24-12.74A16.31,16.31,0,0,0,526.44,334.75Z"/><path class="cls-3" d="M481.29,414.86a152.75,152.75,0,0,0-16.66-17.38c.14-.13.29-.25.44-.37l1.64-1.15a154.34,154.34,0,0,1,37.65,51.38l-2.28,1.06A152.73,152.73,0,0,0,481.29,414.86Z"/><path class="cls-3" d="M463.79,396.74a1.26,1.26,0,0,1-.18-1.69l.68-.48a1.27,1.27,0,0,1,1.16.28c.43.37.84.73,1.26,1.11l-1.64,1.15c-.15.12-.3.24-.44.37Z"/><path class="cls-2" d="M464.29,394.57l-.68.48.07-.09A1.26,1.26,0,0,1,464.29,394.57Z"/><path class="cls-3" d="M463.61,395.05a1.26,1.26,0,0,0,.18,1.69l.84.74a32.78,32.78,0,0,0-9.23,37.22c5.8,14.54,15,21.18,28,20.31,3.92-.4,10.55-2.89,18.64-6.61.17.37.34.73.5,1.1a1.25,1.25,0,0,0,1.15.75,1.27,1.27,0,0,0,.34,0c-8.83,4.09-16.12,6.87-20.42,7.31-.8.06-1.6.09-2.38.09-12.92,0-22.39-7.39-28.21-22a35.29,35.29,0,0,1,10.45-40.5l.07-.06Z"/><path class="cls-5" d="M533.53,296a15.25,15.25,0,0,0,15-4c3.41-3.48-1.93-8.83-5.34-5.35a7.58,7.58,0,0,1-7.62,2.09c-4.71-1.28-6.71,6-2,7.29Z"/><path class="cls-5" d="M556.37,291a25,25,0,0,0,23.68,4.42c4.59-1.55,2.62-8.85-2-7.29a17.35,17.35,0,0,1-16.33-2.47c-3.78-3-9.17,2.33-5.34,5.34Z"/><path class="cls-5" d="M542.91,313.2a18.33,18.33,0,0,1,21.33-1.45c4.16,2.55,8-4,3.82-6.53a26,26,0,0,0-30.49,2.64c-3.7,3.17,1.67,8.5,5.34,5.34Z"/><circle class="cls-6" cx="586.84" cy="312.63" r="8.19"/><circle class="cls-6" cx="545.26" cy="330.27" r="8.19"/><circle class="cls-6" cx="570.46" cy="346.02" r="8.19"/><circle class="cls-6" cx="524.47" cy="370.59" r="8.19"/><circle class="cls-6" cx="497.38" cy="391.38" r="8.19"/><circle class="cls-6" cx="511.87" cy="425.4" r="8.19"/><circle class="cls-6" cx="528.25" cy="399.57" r="8.19"/><circle class="cls-6" cx="620.86" cy="428.55" r="3.15"/><circle class="cls-6" cx="638.5" cy="452.12" r="3.15"/><circle class="cls-6" cx="646.69" cy="422.25" r="3.15"/><circle class="cls-6" cx="683.49" cy="359.88" r="3.15"/><circle class="cls-6" cx="656.14" cy="399.57" r="3.15"/><circle class="cls-6" cx="684.49" cy="391.38" r="3.15"/><circle class="cls-6" cx="667.48" cy="433.59" r="3.15"/><circle class="cls-6" cx="557.23" cy="399.57" r="8.19"/><path class="cls-7" d="M514.82,308.81a6.32,6.32,0,0,1,4.47,4.75,13.89,13.89,0,0,1-.31,6.8c-.47,1.92-1.09,3.9-.63,5.81.27,1.12.9,2.23.66,3.36a2.36,2.36,0,0,1-3.38,1.46,1.63,1.63,0,0,0-.9-.38,1,1,0,0,0-.53.27,11.19,11.19,0,0,1-1.39,1.1,1.68,1.68,0,0,1-1.69.08,5.12,5.12,0,0,0-.62-.45c-.59-.26-1.24.26-1.89.24a1.5,1.5,0,0,1-1.26-1,4,4,0,0,1-.14-1.72,43.68,43.68,0,0,1,5.41-18.41c.49-.9,1.24-1.9,2.27-1.82"/><circle class="cls-5" cx="674.68" cy="372.03" r="6.75"/><circle class="cls-5" cx="656.59" cy="368.52" r="6.75"/><path class="cls-5" d="M667.48,392.33a2.52,2.52,0,0,1-2.52-2.5,6.28,6.28,0,0,0-3.31-5.63,6.45,6.45,0,0,0-7.87,2.35,2.52,2.52,0,0,1-4.1-2.94,11.55,11.55,0,0,1,14.18-3.95A11.38,11.38,0,0,1,670,389.78a2.53,2.53,0,0,1-2.49,2.55Z"/><path class="cls-3" d="M530.15,262.22a207.4,207.4,0,0,1,1.8-24.14,2.42,2.42,0,0,1,.49-1.37,2.34,2.34,0,0,1,1.44-.59c8-1.24,16.1.45,24.16.21,1.75-.05,3.49-.19,5.24-.14,2.7.07,5.37.61,8.07.83,7.33.59,14.68-1.15,22-.66a1.67,1.67,0,0,1,1.13.36,1.73,1.73,0,0,1,.34,1.21l.72,26.61"/><path class="cls-3" d="M530.78,262.74c8.53-.35,17.08-.15,25.61.11q12.29.39,24.56.95c4.93.22,9.9.46,14.77-.31"/><path class="cls-3" d="M556.74,368.1c6.43,13.1,16.48,24,26.38,34.71l-14.79-15.67a74.63,74.63,0,0,0,7.44,9"/><path class="cls-3" d="M555.45,368.86c6.68,13.24,16.62,24.2,26.61,35l2.12-2.12-14.79-15.67c-1.14-1.21-3.37.41-2.36,1.82a90,90,0,0,0,7.68,9.31c1.33,1.4,3.45-.72,2.12-2.12a83.73,83.73,0,0,1-7.21-8.71l-2.35,1.82,14.79,15.67c1.33,1.41,3.43-.71,2.12-2.12-9.82-10.63-19.57-21.39-26.14-34.4-.87-1.73-3.46-.21-2.59,1.51Z"/><path class="cls-3" d="M558.16,369.43A68.89,68.89,0,0,1,578.67,360,66.45,66.45,0,0,1,590.88,358c1.4-.1,3.88-.68,5.12-.17,2.37,1,2.24,3.55,2.41,5.64.57,7,1.14,14.63-.26,21.6-1.76,8.76-7.83,12.65-15.58,15.84-1.76.73-1,3.63.8,2.89,7.3-3,13.92-6.48,16.69-14.35,3.22-9.14,2-20.25,1-29.67-.27-2.44-.3-4.27-3-4.86-3.82-.86-8.86.12-12.71.7a70.82,70.82,0,0,0-28.75,11.25c-1.59,1.06-.09,3.66,1.52,2.59Z"/><path class="cls-3" d="M463.31,399.06a106.75,106.75,0,0,1,27.06,33.05l2.59-1.52-4-7.08L486.41,425c2.75,3.81,5.35,7.72,7.73,11.77a38.65,38.65,0,0,1,3.41,6.16c1.27,3.61.7,5.23-2.57,6.94a27.35,27.35,0,0,1-27.36-1.29c-17.21-11.17-15.36-35.53-2.59-49.25,1.32-1.41-.8-3.54-2.12-2.12-14.86,15.95-15.49,44.58,5.86,55.48a30.37,30.37,0,0,0,30.54-1.92c4.27-2.9,3-5.24.83-9.35A145.24,145.24,0,0,0,489,423.51a1.5,1.5,0,0,0-2.59,1.51l4,7.09c.95,1.69,3.49.19,2.59-1.52a109.12,109.12,0,0,0-27.53-33.66c-1.48-1.21-3.62.9-2.12,2.13Z"/><path class="cls-3" d="M648.33,330.59l0,17a1.5,1.5,0,0,0,1.1,1.44c12.51,2,25.71,1.22,38.34,1.47a1.51,1.51,0,0,0,1.45-1.1,62.1,62.1,0,0,0,.35-17.06,1.55,1.55,0,0,0-1.5-1.5q-18.87-.46-37.71-1.48c-1.93-.1-1.92,2.9,0,3q18.84,1,37.71,1.48l-1.5-1.5a59.43,59.43,0,0,1-.24,16.26l1.44-1.1c-12.34-.25-25.33.63-37.54-1.36l1.1,1.45,0-17a1.5,1.5,0,0,0-3,0Z"/><path class="cls-3" d="M663.73,412.58a93.64,93.64,0,0,0,7.52,11.58c2.1,2.75,5.66,8.83,9.15,9.82,5.83,1.64,10.91-7.88,11.87-12.17,1-4.47,2-17.19-4.29-18.08-4.86-.69-10.66,1.08-15.19,2.6-3.27,1.1-6.49,2.11-8.25,5.27-.67,1.21.78,3,2.05,2l4.38-3.22a1.5,1.5,0,0,0-1.51-2.59c-5.87,2.67-8.24,3.43-3.06,8.25,1.41,1.31,3.53-.81,2.12-2.12-.94-.88-2-2.82-2.55-1.27.24-.73,4.38-2,5-2.27l-1.51-2.59-4.38,3.22,2,2.05c2.6-4.67,13.4-6.12,18.19-6.35,2.31-.11,2.76-.55,3.61,2.21a25.26,25.26,0,0,1,.78,5.11,20.85,20.85,0,0,1-1.48,10.42c-1.08,2.27-3.07,5.32-5.62,6s-4.45-2.65-6.08-4.55a90.07,90.07,0,0,1-10.21-14.89c-.94-1.69-3.53-.18-2.59,1.51Z"/><path class="cls-3" d="M608.71,430.56a19.63,19.63,0,0,0-6.63,12.7h3a14.4,14.4,0,0,1,2-6.8c2-3.3,1.26-2.36,3.27-1.45,2.9,1.31,6.08,5.25,8.11,7.61a51.63,51.63,0,0,1,10.12,18.8,1.51,1.51,0,0,0,2.95-.4,4.72,4.72,0,0,0-.66-2.79l-2.36,1.82c.77.82-7.31,2.13-7.53,2.16-3.76.52-7.13.13-10.12-2.47-4.23-3.66-8.47-13.05-5.48-18.47l-2.79-.76c-.21,3.48-1.83,6.56-.83,10a16.83,16.83,0,0,0,4.33,6.64c4.15,4.33,9.16,7.84,15.28,8.22v-3l-2.48-.53-.76,2.8a18.12,18.12,0,0,0,11.44-3.21c1.59-1.07.09-3.67-1.52-2.59a15.26,15.26,0,0,1-9.92,2.8,1.51,1.51,0,0,0-.76,2.79,6.64,6.64,0,0,0,4,.94,1.5,1.5,0,0,0,0-3c-5.26-.33-9.64-3.62-13.15-7.34-2.57-2.73-4.1-5.08-3.64-9,.22-1.91.89-3.6,1-5.54a1.52,1.52,0,0,0-2.8-.76c-4.46,8.1,2,21.42,10.16,24.77,3.88,1.59,24.32.46,17.68-6.59-1.22-1.3-3.07.35-2.35,1.82l.25,1.27,2.94-.4a54.35,54.35,0,0,0-16.89-26.07c-2.06-1.73-4.48-4.57-7.25-3-3.64,2.11-5,7.92-5.27,11.68-.14,2,2.75,1.86,3,0a16.59,16.59,0,0,1,5.75-10.58c1.45-1.29-.68-3.4-2.12-2.12Z"/><path class="cls-2" d="M596.76,272.31q.18,39.39,1.65,78.75"/><path class="cls-2" d="M528.39,268.22q-.36,19.35-1.31,38.69c-.64,12.66-.54,26-2.81,38.45-2.38,13.15-13.93,18.84-24,25.89l-31.61,22c-1.57,1.1-.08,3.7,1.51,2.59l34-23.68c9-6.24,19.26-11.63,22.35-22.86,1.48-5.38,1.63-11.12,2-16.65q.75-10.4,1.32-20.81,1.18-21.81,1.57-43.65c0-1.93-3-1.93-3,0Z"/><path class="cls-2" d="M508.1,444l5.3-1.5a23.25,23.25,0,0,1-4.1,3l69-38.77"/><path class="cls-2" d="M687.14,352.64l.83,47.24c0,1.93,3,1.94,3,0l-.83-47.24c0-1.93-3-1.93-3,0Z"/><path class="cls-2" d="M614.17,428.94c6.86-4.24,13.54-8.76,20-13.62,5-3.77,10.66-7.5,12.82-13.64,2.42-6.87,1.76-15.19,2.14-22.37l1.37-26.05c.1-1.93-2.9-1.92-3,0l-1.12,21.22c-.39,7.39-.24,15.07-1.36,22.39-1.3,8.48-8.16,12.77-14.6,17.53-5.74,4.23-11.67,8.2-17.73,12-1.64,1-.13,3.61,1.51,2.59Z"/><path class="cls-2" d="M637,458.93q19.31-12.24,39.45-23.11"/><ellipse class="cls-1" cx="204.5" cy="479.98" rx="195.5" ry="12.83"/><polygon class="cls-8" points="150.49 164.14 143.64 476.79 358.92 476.79 344.47 164.14 150.49 164.14"/><polygon class="cls-9" points="69.09 164.14 150.49 164.14 143.64 476.79 50.08 476.79 69.09 164.14"/><path class="cls-10" d="M330,320.19c0,49.1-32.52,93.27-81.61,93.27s-79.66-49.52-79.66-98.61S198.34,226,247.44,226,330,271.1,330,320.19Z"/><path class="cls-11" d="M312.52,320.09c0,38.44-25.46,73-63.9,73s-62.38-38.77-62.38-77.21,23.18-69.6,61.62-69.6S312.52,281.65,312.52,320.09Z"/><polygon class="cls-12" points="149.5 209.28 346.56 209.28 344.47 164.14 150.49 164.14 149.5 209.28"/><path class="cls-13" d="M266.12,185.15c0,4.21-2.79,8-7,8s-6.83-4.25-6.83-8.46,2.54-7.61,6.75-7.61S266.12,180.94,266.12,185.15Z"/><path class="cls-14" d="M269.29,185.15c0,3.74-2.48,7.11-6.23,7.11s-6.07-3.78-6.07-7.52,2.26-6.78,6-6.78S269.29,181.4,269.29,185.15Z"/><path class="cls-13" d="M292.74,185.15c0,4.21-2.79,8-7,8s-6.83-4.25-6.83-8.46,2.54-7.61,6.74-7.61S292.74,180.94,292.74,185.15Z"/><path class="cls-14" d="M295.91,185.15c0,3.74-2.48,7.11-6.22,7.11s-6.08-3.78-6.08-7.52,2.26-6.78,6-6.78S295.91,181.4,295.91,185.15Z"/><path class="cls-13" d="M317.84,185.15c0,4.21-2.78,8-7,8S304,188.9,304,184.69s2.54-7.61,6.75-7.61S317.84,180.94,317.84,185.15Z"/><path class="cls-14" d="M321,185.15c0,3.74-2.48,7.11-6.23,7.11s-6.07-3.78-6.07-7.52,2.25-6.78,6-6.78S321,181.4,321,185.15Z"/><rect class="cls-14" x="160.38" y="174.03" width="40.32" height="23.58"/><polygon class="cls-12" points="184.08 301.07 194.37 307.69 194.61 332.26 184.08 337.58 184.08 301.07"/><path class="cls-15" d="M235.16,382.88c17.88,3.32,36.17-2.35,49.68-14.4,13.81-12.31,21.13-30.28,22.89-48.41.56-5.84-8.57-5.8-9.13,0-1.49,15.39-7.92,30.51-19.33,41.15-11,10.24-26.77,15.63-41.68,12.86-5.74-1.07-8.2,7.73-2.43,8.8Z"/><path class="cls-15" d="M298.07,303.35v1.52a4.75,4.75,0,0,0,1.33,3.23,4.56,4.56,0,0,0,6.46,0,4.73,4.73,0,0,0,1.33-3.23v-1.52a4.7,4.7,0,0,0-1.33-3.23,4.59,4.59,0,0,0-6.46,0,4.75,4.75,0,0,0-1.33,3.23Z"/><path class="cls-16" d="M583.5,406.05a95.81,95.81,0,0,1-29.5-38.7,71.16,71.16,0,0,1,46-13.05"/><path class="cls-3" d="M681.81,436.14A61.15,61.15,0,0,1,663,411.35,45.09,45.09,0,0,1,692.33,403"/><path class="cls-3" d="M529.06,235.39a127.94,127.94,0,0,1-.47,25.51c-.21,1.73,1.55,2.84,3,3l9.22,1v-6l-9.27-.07c-3.28,0-4.2,5.29-.79,5.89a20,20,0,0,0,5.89.13,27.75,27.75,0,0,1,9.39.67c5,1,9.79.12,14.8-.12,11-.55,22.3.35,33.36.63a3,3,0,0,0,3-3q.21-12.62-.09-25.24a3.07,3.07,0,0,0-3-3c-20.16-1.05-40.4-1.31-60.58-1.91-3.87-.12-3.86,5.88,0,6,20.18.6,40.42.86,60.58,1.91l-3-3q.3,12.63.09,25.24l3-3c-10.51-.27-21.1-.95-31.61-.69-5,.12-10,1.34-15,.39a46,46,0,0,0-6.56-1.24c-2.9-.13-5.84,1-8.73.45l-.8,5.89,9.27.07c4,0,3.75-5.59,0-6l-9.22-1,3,3a127.94,127.94,0,0,0,.47-25.51c-.31-3.82-6.31-3.86-6,0Z"/><path class="cls-3" d="M648.28,332.5c-.63,4.76-1,9.52-1.24,14.32a3.06,3.06,0,0,0,3,3q18.48.89,37,1.12a3.06,3.06,0,0,0,3-3l.68-14a3,3,0,0,0-2.21-2.89c-11.84-1.86-24.33-1.42-36.31-1.93-3.86-.16-3.85,5.84,0,6,11.41.49,23.43-.06,34.72,1.71L684.7,334l-.68,14,3-3q-18.49-.24-37-1.12l3,3c.2-4.8.61-9.56,1.24-14.32.5-3.82-5.51-3.78-6,0Z"/><path class="cls-2" d="M507,447.68q37.18-18.89,73.07-40.14a1.5,1.5,0,0,0-1.52-2.59q-35.88,21.24-73.06,40.14c-1.72.88-.2,3.47,1.51,2.59Z"/><path class="cls-2" d="M594.38,269.13l2.6,82c.06,1.93,3.06,1.94,3,0l-2.6-82c-.06-1.92-3.06-1.93-3,0Z"/><path class="cls-2" d="M470,396.82q13.28-10.17,27.11-19.59c7.73-5.25,17.1-9.77,23.31-16.91,5.44-6.27,6.73-14.44,7.36-22.45.94-11.74,1.65-23.51,2.48-35.26.13-1.93-2.87-1.92-3,0q-1.08,15.47-2.17,30.94c-.68,9.78-1.34,19.71-8.93,26.84-6.86,6.46-15.89,11-23.63,16.34q-12.26,8.43-24,17.5c-1.51,1.16,0,3.76,1.51,2.59Z"/><path class="cls-2" d="M528.29,267.49q-1.32,18-1.11,36a1.5,1.5,0,0,0,3,0q-.21-18,1.11-36c.14-1.93-2.86-1.92-3,0Z"/><path class="cls-2" d="M507.72,448.31l72.61-40.82c1.68-.94.17-3.54-1.52-2.59l-72.6,40.82c-1.68.94-.17,3.54,1.51,2.59Z"/><path class="cls-2" d="M687.5,353.45c0,15.67-.39,31.39,1.32,47,.21,1.9,3.21,1.92,3,0-1.71-15.6-1.36-31.32-1.32-47a1.5,1.5,0,0,0-3,0Z"/><path class="cls-2" d="M647.31,352.17l-.82,23.15c-.24,6.93,0,14.09-1,20.95-1.27,8.47-6.11,12.2-12.85,16.66l-20,13.22c-1.6,1.06-.1,3.66,1.52,2.59,7.77-5.14,15.59-10.22,23.32-15.43,4.92-3.31,8.56-6.82,10.19-12.72,1.89-6.86,1.48-14.36,1.73-21.41l.95-27c.07-1.93-2.93-1.93-3,0Z"/><path class="cls-2" d="M636.66,460.51c7.2-3.06,13.64-7.44,20.31-11.5,6.94-4.23,13.92-8.41,20.89-12.62a1.5,1.5,0,0,0-1.52-2.59c-7,4.21-13.94,8.38-20.89,12.62-6.66,4.06-13.1,8.44-20.3,11.5-1.77.76-.25,3.34,1.51,2.59Z"/><path class="cls-3" d="M529,254.9c0,2.6-1.31,8.14,1.52,9.8,1.58.93,4,.47,5.7.46l7.49,0a1.5,1.5,0,0,0,0-3l-9.48,0c-1.92,0-2.35-.23-2.33-2.19,0-1.69.07-3.39.1-5.08,0-1.93-3-1.93-3,0Z"/><path class="cls-3" d="M585.75,266.13l7,0c1.41,0,3.59.44,4.65-.79s0-2.72-.18-4.11c-.23-2.26.57-4.95.89-7.2.26-1.89-2.63-2.71-2.89-.8s-.56,3.9-.83,5.85c-.15,1.13-.48,2.63.06,3.7a4.73,4.73,0,0,0,.25.66c1-.32.91-.42-.2-.3a15.4,15.4,0,0,0-2.63,0l-6.16,0a1.5,1.5,0,0,0,0,3Z"/><path class="cls-3" d="M648.5,340.39c0,2.09,0,4.18,0,6.27,0,1.19,0,2.28,1.13,2.93,1.3.75,3.17.23,4.59.13l6-.44c1.92-.14,1.93-3.14,0-3l-4.89.36c-.94.07-3.61.69-4.44.23l.69.9c-.37-.91-.1-2.47-.1-3.46v-3.92a1.5,1.5,0,0,0-3,0Z"/><path class="cls-3" d="M680.51,349.84c1.78.17,3.56.29,5.35.33,1.06,0,2.56.27,3.47-.45a2.46,2.46,0,0,0,.66-2.59,8.64,8.64,0,0,1,.43-4.72c.68-1.81-2.22-2.59-2.9-.8a11,11,0,0,0-.71,3.41,9.48,9.48,0,0,0,.06,1.6c0,.27.1,1.43.26,1.16l.9-.68c-.94.39-2.49.07-3.51,0-1.34-.05-2.68-.15-4-.28-1.92-.19-1.91,2.81,0,3Z"/><path class="cls-3" d="M457.91,437.7a33.54,33.54,0,0,1,9.27-41h-2.12a129.87,129.87,0,0,1,22.3,23.54,128,128,0,0,1,8,12.45c2.66,4.7,6.27,10.37,7.21,15.7l.69-1.69c-8.15,5.22-20.73,9.35-30.28,6-8.47-3-15-11.91-17-20.44-.45-1.87-3.35-1.08-2.9.8,2.19,9.12,8.93,18.23,17.66,21.95,10.69,4.56,24.79.23,34.07-5.71a1.57,1.57,0,0,0,.69-1.7c-.86-4.89-4-9.93-6.32-14.25a128,128,0,0,0-9.2-14.61,132,132,0,0,0-22.77-24.15,1.55,1.55,0,0,0-2.12,0,36.53,36.53,0,0,0-9.74,44.64c.83,1.74,3.42.22,2.59-1.51Z"/><path class="cls-3" d="M605.32,454.63a18.89,18.89,0,0,1,5.27-22.94h-2.12a76.19,76.19,0,0,1,13,13.75c3.17,4.37,7.6,10.47,8.54,15.86l.69-1.7c-4.08,2.62-10,4.66-14.88,3.83-5.91-1-10-6.19-11.55-11.8a1.5,1.5,0,0,0-2.89.8c1.55,5.74,5.66,11.41,11.43,13.41,6.21,2.15,14.06-.22,19.41-3.65a1.56,1.56,0,0,0,.69-1.69c-1-5.74-5.51-11.95-8.84-16.57a79,79,0,0,0-13.46-14.36,1.54,1.54,0,0,0-2.12,0c-8,6.75-10.06,17.12-5.74,26.58.8,1.75,3.39.23,2.59-1.52Z"/></g></svg>